# xmcd
#
# Track frame offsets:
#	150
#	23795
#	35299
#	51644
#	71026
#	80647
#	94480
#	111143
#	128539
#	142008
#	166062
#
# Disc length: 2482 seconds
#
# Revision: 1
# Processed by: cddbd v1.5.2PL0 Copyright (c) Steve Scherf et al.
# Submitted via: audiograbber 1.83.01
#
DISCID=9809b00b
DTITLE=THE TWANG - Not Your Average Country Band
DYEAR=2006
DGENRE=Country
TTITLE0=Baker Street
TTITLE1=Walk This Way
TTITLE2=Zombie
TTITLE3=Wind Of Change
TTITLE4=Big Big World
TTITLE5=Help
TTITLE6=Sweet Dreams
TTITLE7=Walk On The Wild Side
TTITLE8=Blitzkrieg Bop
TTITLE9=My Heart Will Go On
TTITLE10=For Those About To Rock
EXTD=
EXTT0=
EXTT1=
EXTT2=
EXTT3=
EXTT4=
EXTT5=
EXTT6=
EXTT7=
EXTT8=
EXTT9=
EXTT10=
PLAYORDER=
